<?xml version="1.0" encoding="utf-8"?>
<!-- Generator: Adobe Illustrator 15.0.0, SVG Export Plug-In . SVG Version: 6.00 Build 0)  -->
<!DOCTYPE svg PUBLIC "-//W3C//DTD SVG 1.1//EN" "http://www.w3.org/Graphics/SVG/1.1/DTD/svg11.dtd">
<svg version="1.1" id="Слой_1" xmlns="http://www.w3.org/2000/svg" xmlns:xlink="http://www.w3.org/1999/xlink" x="0px" y="0px"
	 width="500px" height="150px" viewBox="-6 -6.5 500 150" enable-background="new -6 -6.5 500 150" xml:space="preserve">
<rect x="-39.542" y="76.828" fill="none" width="566.75" height="69"/>
<g enable-background="new    ">
	<path fill="#F1F1F1" d="M-0.898,77.9H6.66v55.986h-7.559V77.9z"/>
	<path fill="#F1F1F1" d="M18.525,75.659l41.396,42.551V77.9h7.646v58.579L26.172,94.117v39.77h-7.646V75.659z"/>
	<path fill="#F1F1F1" d="M75.566,77.9H109.8v7.646H96.44v48.34h-7.559v-48.34H75.566V77.9z"/>
	<path fill="#F1F1F1" d="M117.798,77.9h31.025v7.646h-23.467v13.975h23.467v7.559h-23.467v19.248h23.467v7.559h-31.025V77.9z"/>
	<path fill="#F1F1F1" d="M159.019,77.9h12.129c6.035,0,10.949,1.501,14.744,4.503c3.794,3.002,5.691,6.847,5.691,11.532
		c0,3.749-1.228,7.06-3.682,9.93c-2.455,2.87-6.283,4.891-11.483,6.063l16.264,23.959h-8.772l-15.53-23.027h-1.714v23.027h-7.646
		V77.9z M166.665,84.668v19.512c11.279,0.234,16.919-3.032,16.919-9.8c0-2.373-0.659-4.313-1.978-5.823
		c-1.318-1.508-3.076-2.533-5.273-3.076C174.136,84.939,170.913,84.668,166.665,84.668z"/>
	<path fill="#F1F1F1" d="M196.372,77.988h8.072l17.582,39.652l17.71-39.652h8.14l-25.95,57.788L196.372,77.988z"/>
	<path fill="#F1F1F1" d="M255.259,77.9h7.559v55.986h-7.559V77.9z"/>
	<path fill="#F1F1F1" d="M274.507,77.9h31.025v7.646h-23.467v13.975h23.467v7.559h-23.467v19.248h23.467v7.559h-31.025V77.9z"/>
	<path fill="#F1F1F1" d="M360.75,75.571l15.314,58.315h-7.494l-9.268-35.63l-15.955,37.783l-16.004-38.096l-9.395,35.942h-7.451
		l15.314-58.315l17.527,41.725L360.75,75.571z"/>
	<path fill="#F1F1F1" d="M404.826,75.747l26.434,58.14h-8.014l-6.496-14.326h-23.758l-6.425,14.326h-7.954L404.826,75.747z
		 M404.807,93.22l-8.957,19.969h18.01L404.807,93.22z"/>
	<path fill="#F1F1F1" d="M437.852,75.659l41.396,42.551V77.9h7.646v58.579l-41.396-42.362v39.77h-7.646V75.659z"/>
</g>
<polygon fill="#F1F1F1" points="286.333,37.505 237.583,37.505 208.583,52.317 208.583,37.505 201.333,37.505 201.333,1.505 
	286.333,1.505 "/>
<polygon fill="#F1F1F1" points="237.583,62.909 265.542,62.909 282.174,71.404 282.174,62.909 286.333,62.909 286.333,42.262 
	237.583,42.262 "/>
</svg>
